<?xml version="1.0" encoding="UTF-8" standalone="no"?>
<!-- Created with Inkscape (http://www.inkscape.org/) -->
<!-- Made by Furdox! http://furdox.tk/ -->

<svg
   width="150mm"
   height="150mm"
   viewBox="0 0 150 150"
   version="1.1"
   id="svg5"
   xml:space="preserve"
   inkscape:version="1.2.1 (9c6d41e410, 2022-07-14)"
   sodipodi:docname="kaykayhead1.svg"
   xmlns:inkscape="http://www.inkscape.org/namespaces/inkscape"
   xmlns:sodipodi="http://sodipodi.sourceforge.net/DTD/sodipodi-0.dtd"
   xmlns:xlink="http://www.w3.org/1999/xlink"
   xmlns="http://www.w3.org/2000/svg"
   xmlns:svg="http://www.w3.org/2000/svg"><sodipodi:namedview
     id="namedview7"
     pagecolor="#505050"
     bordercolor="#eeeeee"
     borderopacity="1"
     inkscape:showpageshadow="0"
     inkscape:pageopacity="0"
     inkscape:pagecheckerboard="0"
     inkscape:deskcolor="#505050"
     inkscape:document-units="mm"
     showgrid="false"
     inkscape:zoom="1.829812"
     inkscape:cx="285.27521"
     inkscape:cy="193.18924"
     inkscape:window-width="2560"
     inkscape:window-height="1421"
     inkscape:window-x="-6"
     inkscape:window-y="-6"
     inkscape:window-maximized="1"
     inkscape:current-layer="layer1" /><defs
     id="defs2" /><g
     inkscape:label="Calque 1"
     inkscape:groupmode="layer"
     id="layer1"><image
       width="79.210732"
       height="47.790474"
       preserveAspectRatio="none"
       id="image5819"
       x="-40.036766"
       y="4.4258013"
       style="fill:#ff5bcb"
       inkscape:label="ref" /><path
       style="fill:#6746c5;fill-rule:evenodd;stroke-width:0.264583"
       d="M 125.22005,58.030002 102.95228,39.666321 120.40167,20.630174 Z"
       id="path2451-7"
       sodipodi:nodetypes="cccc"
       inkscape:label="ear_r" /><path
       style="fill:#6746c5;fill-rule:evenodd;stroke-width:0.264583"
       d="M 76.34664,58.561345 98.614409,40.197664 81.165021,21.161517 Z"
       id="path2451"
       sodipodi:nodetypes="cccc"
       inkscape:label="ear_l" /><path
       style="fill:#ffa9e4;fill-rule:evenodd;stroke-width:0.21235"
       d="m 119.29163,25.363443 -13.73661,14.904715 16.38902,10.136656 z"
       id="path2451-72-0"
       sodipodi:nodetypes="cccc"
       inkscape:label="ear_r_f" /><path
       style="fill:#ffa9e4;fill-rule:evenodd;stroke-width:0.219056"
       d="M 80.106136,52.535357 94.276536,39.69572 82.590644,26.703202 Z"
       id="path2451-72"
       sodipodi:nodetypes="cccc"
       inkscape:label="ear_l_f" /><circle
       style="fill:#6746c5;fill-rule:evenodd;stroke-width:0.264583"
       id="path2240"
       cx="101.07254"
       cy="64.923561"
       r="26.17186"
       inkscape:label="cercleprincipal" /><rect
       style="fill:#ff5bcb;fill-rule:evenodd;stroke-width:0.315875"
       id="rect6367"
       width="24.581305"
       height="15.905551"
       x="73.888512"
       y="52.054527" /><rect
       style="fill:#59c6ff;fill-rule:evenodd;stroke-width:0.311538"
       id="rect6367-0"
       width="24.581305"
       height="15.471764"
       x="103.38608"
       y="52.343716" /><rect
       style="fill:#ffffff;fill-rule:evenodd;stroke-width:0.266614"
       id="rect6367-0-6"
       width="21.54479"
       height="12.928576"
       x="75.334473"
       y="53.585545" /><rect
       style="fill:#ffffff;fill-rule:evenodd;stroke-width:0.258827"
       id="rect6367-0-6-7"
       width="21.255598"
       height="12.350193"
       x="105.19353"
       y="53.832211" /><rect
       style="fill:#ff5bcb;fill-rule:evenodd;stroke-width:0.264583"
       id="rect6489"
       width="2.9139752"
       height="6.3902969"
       x="98.078278"
       y="56.464661" /><rect
       style="fill:#59c6ff;fill-rule:evenodd;stroke-width:0.264583"
       id="rect6489-6"
       width="2.9139752"
       height="6.3902969"
       x="100.89001"
       y="56.464664" /><path
       style="fill:#000000;fill-rule:evenodd;stroke-width:0.317147"
       d="m 84.316614,63.344787 5.301622,-4.385717 4.438565,4.385717 -0.863052,1.461905 -3.575513,-3.776588 -3.822101,3.532938 z"
       id="path6673" /><path
       style="fill:#000000;fill-rule:evenodd;stroke-width:0.295568"
       d="m 117.24421,63.235502 -4.9081,-4.1146 -4.10911,4.1146 0.799,1.371532 3.31011,-3.543126 3.5384,3.314538 z"
       id="path6673-4" /><path
       style="fill:#000000;fill-rule:evenodd;stroke-width:0.264583"
       d="m 92.216042,78.443281 c 2.331997,3.367166 3.768575,3.7496 4.952409,3.289556 1.84066,-1.324956 1.740427,-4.109735 3.542599,-4.084835 1.72451,0.02383 2.27756,3.709794 3.19015,4.084835 1.46093,0.494667 3.07568,-1.912883 3.96735,-3.687194 0.85577,-1.390624 1.18198,0.495071 1.04833,1.735151 -0.68542,2.932698 -2.92144,4.59824 -5.31391,4.880109 -1.31603,0.192111 -2.45458,-2.45946 -2.81962,-4.012536 -0.37437,1.48502 -2.00213,3.895917 -3.217261,3.867941 -3.885919,0.162412 -5.375204,-1.719364 -6.000729,-4.337876 -0.322761,-2.497157 0.118778,-2.276804 0.650682,-1.735151 z"
       id="path6697"
       sodipodi:nodetypes="ccscccccccc" /></g></svg>
