<?xml version="1.0" encoding="UTF-8" standalone="no"?>
<!-- Created with Inkscape (http://www.inkscape.org/) -->

<!-- Made by Furdox! http://furdox.tk/ -->

<svg
   width="115mm"
   height="150mm"
   viewBox="0 0 75 50"
   version="1.1"
   id="svg5"
   xml:space="preserve"
   inkscape:version="1.2.1 (9c6d41e410, 2022-07-14)"
   sodipodi:docname="malkaykayhead1.svg"
   xmlns:inkscape="http://www.inkscape.org/namespaces/inkscape"
   xmlns:sodipodi="http://sodipodi.sourceforge.net/DTD/sodipodi-0.dtd"
   xmlns="http://www.w3.org/2000/svg"
   xmlns:svg="http://www.w3.org/2000/svg"><sodipodi:namedview
     id="namedview7"
     pagecolor="#505050"
     bordercolor="#eeeeee"
     borderopacity="1"
     inkscape:showpageshadow="0"
     inkscape:pageopacity="0"
     inkscape:pagecheckerboard="0"
     inkscape:deskcolor="#505050"
     inkscape:document-units="mm"
     showgrid="false"
     inkscape:zoom="1.4142136"
     inkscape:cx="241.83052"
     inkscape:cy="332.34019"
     inkscape:window-width="2560"
     inkscape:window-height="1421"
     inkscape:window-x="-6"
     inkscape:window-y="-6"
     inkscape:window-maximized="1"
     inkscape:current-layer="layer1" /><defs
     id="defs2" /><g
     inkscape:label="Calque 1"
     inkscape:groupmode="layer"
     id="layer1"><image
       width="79.210732"
       height="47.790474"
       preserveAspectRatio="none"
       id="image5819"
       x="-40.036766"
       y="4.4258013"
       style="fill:#ff5bcb"
       inkscape:label="ref" /><path
       style="fill:#6746c5;fill-rule:evenodd;stroke-width:0.367144"
       d="M 71.195548,28.0087 40.310711,2.5146151 64.512576,-23.913045 Z"
       id="path2451-7"
       sodipodi:nodetypes="cccc"
       inkscape:label="ear_r" /><path
       style="fill:#6746c5;fill-rule:evenodd;stroke-width:0.367144"
       d="M 3.409362,28.746358 34.294194,3.2522724 10.092335,-23.175388 Z"
       id="path2451"
       sodipodi:nodetypes="cccc"
       inkscape:label="ear_l" /><path
       style="fill:#ffa9e4;fill-rule:evenodd;stroke-width:0.294663"
       d="M 62.972978,-17.341902 43.920647,3.3501384 66.651804,17.42274 Z"
       id="path2451-72-0"
       sodipodi:nodetypes="cccc"
       inkscape:label="ear_r_f" /><path
       style="fill:#ffa9e4;fill-rule:evenodd;stroke-width:0.303969"
       d="M 8.6236881,20.380549 28.277674,2.5554294 12.069637,-15.48193 Z"
       id="path2451-72"
       sodipodi:nodetypes="cccc"
       inkscape:label="ear_l_f" /><ellipse
       style="fill:#6746c5;fill-rule:evenodd;stroke-width:0.367144"
       id="path2240"
       cx="37.70356"
       cy="37.578957"
       inkscape:label="cercleprincipal"
       rx="36.299709"
       ry="36.334087" /><rect
       style="fill:#ff5bcb;fill-rule:evenodd;stroke-width:0.438318"
       id="rect6367"
       width="34.093651"
       height="22.081491"
       x="4.4408921e-16"
       y="19.713018" /><rect
       style="fill:#59c6ff;fill-rule:evenodd;stroke-width:0.432301"
       id="rect6367-0"
       width="34.093651"
       height="21.479271"
       x="40.912376"
       y="20.114496" /><rect
       style="fill:#ffffff;fill-rule:evenodd;stroke-width:0.369961"
       id="rect6367-0-6"
       width="29.882082"
       height="17.948591"
       x="2.0055113"
       y="21.838516" /><rect
       style="fill:#ffffff;fill-rule:evenodd;stroke-width:0.359157"
       id="rect6367-0-6-7"
       width="29.480978"
       height="17.14563"
       x="43.41927"
       y="22.180962" /><rect
       style="fill:#ff5bcb;fill-rule:evenodd;stroke-width:0.367144"
       id="rect6489"
       width="4.0416102"
       height="8.8715754"
       x="33.550594"
       y="25.835562" /><rect
       style="fill:#59c6ff;fill-rule:evenodd;stroke-width:0.367144"
       id="rect6489-6"
       width="4.0416102"
       height="8.8715754"
       x="37.45039"
       y="25.835566" /><path
       style="fill:#000000;fill-rule:evenodd;stroke-width:0.440083"
       d="m 14.463514,35.387154 7.353215,-6.08864 6.156178,6.08864 -1.197032,2.029547 -4.959146,-5.242994 -5.301157,4.904736 z"
       id="path6673" /><path
       style="fill:#000000;fill-rule:evenodd;stroke-width:0.410139"
       d="m 60.133259,35.235436 -6.807412,-5.712251 -5.699232,5.712251 1.108194,1.904082 4.591038,-4.918882 4.907672,4.601536 z"
       id="path6673-4" /><path
       style="fill:#000000;fill-rule:evenodd;stroke-width:0.367144"
       d="m 25.419821,56.348219 c 3.234421,4.674597 5.226919,5.205526 6.868866,4.566852 2.552949,-1.839421 2.413928,-5.705498 4.913496,-5.670929 2.391851,0.03308 3.158917,5.150264 4.424657,5.670929 2.026273,0.686741 4.26589,-2.655633 5.502614,-5.118889 1.186931,-1.930586 1.639377,0.687302 1.454008,2.408891 -0.95066,4.071429 -4.051964,6.383683 -7.370259,6.774997 -1.825301,0.266706 -3.404441,-3.414439 -3.910743,-5.570556 -0.519241,2.061636 -2.776903,5.408657 -4.46226,5.369817 -5.389671,0.225475 -7.455271,-2.386972 -8.322859,-6.022222 -0.447662,-3.466775 0.164742,-3.160862 0.90248,-2.40889 z"
       id="path6697"
       sodipodi:nodetypes="ccscccccccc" /></g></svg>
